<svg xmlns="http://www.w3.org/2000/svg" xmlns:xlink="http://www.w3.org/1999/xlink" width="500" zoomAndPan="magnify" viewBox="0 0 375 374.999991" height="500" preserveAspectRatio="xMidYMid meet" version="1.0"><rect x="-37.5" width="450" fill="#ffffff" y="-37.499999" height="449.999989" fill-opacity="1"/><rect x="-37.5" width="450" fill="#ffffff" y="-37.499999" height="449.999989" fill-opacity="1"/><path fill="#1ba553" d="M 187.367188 -0.128906 C 83.246094 0.222656 0.0273438 84.84375 1.386719 188.90625 C 1.449219 194.132812 1.730469 199.347656 2.234375 204.554688 C 2.734375 209.757812 3.457031 214.933594 4.394531 220.074219 C 5.335938 225.21875 6.492188 230.3125 7.859375 235.359375 C 9.230469 240.40625 10.8125 245.386719 12.601562 250.296875 C 14.390625 255.210938 16.386719 260.039062 18.585938 264.785156 C 20.785156 269.527344 23.179688 274.171875 25.769531 278.714844 C 28.359375 283.257812 31.140625 287.679688 34.105469 291.988281 C 37.070312 296.296875 40.210938 300.472656 43.527344 304.515625 C 44.046875 305.152344 44.519531 305.828125 44.941406 306.535156 C 45.359375 307.242188 45.726562 307.980469 46.035156 308.742188 C 46.347656 309.507812 46.597656 310.289062 46.792969 311.089844 C 46.984375 311.890625 47.117188 312.703125 47.1875 313.523438 C 47.261719 314.34375 47.269531 315.164062 47.21875 315.988281 C 47.167969 316.808594 47.054688 317.621094 46.882812 318.429688 C 46.710938 319.234375 46.476562 320.023438 46.1875 320.792969 C 45.898438 321.5625 45.550781 322.308594 45.148438 323.027344 L 29.070312 351.824219 C 24.613281 359.808594 31.875 369.246094 40.738281 366.992188 L 95.195312 353.132812 C 97.09375 352.652344 99.015625 352.511719 100.964844 352.710938 C 102.914062 352.910156 104.769531 353.4375 106.53125 354.296875 C 118.574219 360.144531 131.101562 364.636719 144.113281 367.777344 C 157.128906 370.914062 170.324219 372.628906 183.710938 372.917969 C 288.394531 375.28125 374.324219 291.671875 374.648438 187.011719 C 374.972656 83.5 290.941406 -0.476562 187.367188 -0.128906 Z M 188.011719 349.976562 C 185.332031 349.976562 182.65625 349.914062 179.980469 349.78125 C 177.308594 349.648438 174.636719 349.453125 171.972656 349.191406 C 169.304688 348.929688 166.648438 348.601562 164 348.207031 C 161.351562 347.816406 158.714844 347.359375 156.085938 346.835938 C 153.460938 346.3125 150.847656 345.726562 148.25 345.078125 C 145.652344 344.425781 143.070312 343.714844 140.507812 342.9375 C 137.945312 342.160156 135.402344 341.320312 132.882812 340.417969 C 130.359375 339.515625 127.863281 338.554688 125.386719 337.527344 C 122.914062 336.503906 120.464844 335.421875 118.046875 334.277344 C 115.625 333.132812 113.234375 331.929688 110.871094 330.667969 C 108.507812 329.40625 106.179688 328.085938 103.882812 326.710938 C 101.585938 325.332031 99.324219 323.902344 97.097656 322.414062 C 94.871094 320.925781 92.679688 319.386719 90.53125 317.792969 C 88.378906 316.199219 86.269531 314.550781 84.199219 312.851562 C 82.128906 311.15625 80.101562 309.40625 78.117188 307.609375 C 76.132812 305.8125 74.191406 303.964844 72.300781 302.074219 C 70.40625 300.179688 68.558594 298.242188 66.761719 296.257812 C 64.960938 294.277344 63.214844 292.25 61.515625 290.179688 C 59.816406 288.113281 58.167969 286 56.574219 283.851562 C 54.976562 281.703125 53.4375 279.515625 51.949219 277.289062 C 50.460938 275.0625 49.027344 272.800781 47.652344 270.507812 C 46.273438 268.210938 44.953125 265.882812 43.691406 263.519531 C 42.429688 261.160156 41.226562 258.769531 40.082031 256.351562 C 38.9375 253.929688 37.851562 251.484375 36.824219 249.011719 C 35.800781 246.539062 34.835938 244.039062 33.933594 241.519531 C 33.03125 239 32.191406 236.460938 31.414062 233.898438 C 30.636719 231.335938 29.925781 228.757812 29.273438 226.160156 C 28.621094 223.5625 28.035156 220.953125 27.511719 218.328125 C 26.992188 215.703125 26.535156 213.066406 26.140625 210.417969 C 25.746094 207.769531 25.417969 205.113281 25.15625 202.449219 C 24.894531 199.785156 24.699219 197.117188 24.566406 194.445312 C 24.433594 191.769531 24.371094 189.09375 24.371094 186.417969 C 24.371094 96.085938 97.636719 22.859375 188.011719 22.859375 C 278.039062 22.859375 351.082031 95.519531 351.648438 185.367188 C 352.21875 275.515625 278.210938 349.976562 188.011719 349.976562 Z M 188.011719 349.976562 " fill-opacity="1" fill-rule="nonzero"/><path fill="#1ba553" d="M 158.765625 106.898438 L 158.839844 107.050781 L 168.597656 126.398438 C 169.125 127.4375 169.5625 128.515625 169.914062 129.625 C 170.265625 130.738281 170.523438 131.867188 170.691406 133.023438 C 170.859375 134.175781 170.9375 135.332031 170.917969 136.5 C 170.898438 137.664062 170.785156 138.820312 170.582031 139.96875 C 170.375 141.113281 170.078125 142.238281 169.691406 143.335938 C 169.304688 144.4375 168.832031 145.496094 168.277344 146.519531 C 167.71875 147.542969 167.082031 148.515625 166.367188 149.4375 C 165.652344 150.355469 164.867188 151.214844 164.015625 152.007812 C 163.164062 152.796875 162.382812 153.648438 161.671875 154.558594 C 160.957031 155.472656 160.324219 156.4375 159.765625 157.453125 C 159.207031 158.46875 158.734375 159.523438 158.347656 160.613281 C 157.957031 161.707031 157.660156 162.820312 157.449219 163.960938 C 157.242188 165.101562 157.125 166.25 157.101562 167.40625 C 157.078125 168.566406 157.144531 169.71875 157.308594 170.867188 C 157.46875 172.011719 157.71875 173.140625 158.0625 174.246094 C 158.40625 175.355469 158.832031 176.425781 159.347656 177.464844 C 165.207031 189.222656 175.359375 205.433594 190.847656 217.128906 C 191.710938 217.78125 192.621094 218.371094 193.570312 218.890625 C 194.523438 219.410156 195.507812 219.855469 196.523438 220.226562 C 197.542969 220.597656 198.582031 220.894531 199.644531 221.109375 C 200.707031 221.328125 201.777344 221.464844 202.859375 221.519531 C 203.941406 221.578125 205.023438 221.554688 206.101562 221.449219 C 207.179688 221.34375 208.246094 221.160156 209.296875 220.894531 C 210.347656 220.628906 211.375 220.289062 212.375 219.871094 C 213.375 219.453125 214.335938 218.964844 215.265625 218.402344 L 221.550781 214.582031 C 222.960938 213.722656 224.445312 213.035156 226.015625 212.519531 C 227.582031 212 229.1875 211.664062 230.828125 211.515625 C 232.472656 211.363281 234.109375 211.398438 235.746094 211.621094 C 237.378906 211.84375 238.96875 212.25 240.511719 212.835938 L 265.496094 222.328125 C 266.160156 222.582031 266.808594 222.863281 267.445312 223.179688 C 268.078125 223.496094 268.699219 223.84375 269.300781 224.21875 C 269.902344 224.597656 270.484375 225 271.046875 225.4375 C 271.605469 225.871094 272.144531 226.328125 272.664062 226.816406 C 273.179688 227.304688 273.671875 227.8125 274.136719 228.347656 C 274.601562 228.882812 275.042969 229.441406 275.453125 230.019531 C 275.863281 230.597656 276.246094 231.195312 276.601562 231.808594 C 276.953125 232.425781 277.273438 233.054688 277.566406 233.703125 C 277.855469 234.351562 278.113281 235.011719 278.339844 235.683594 C 278.566406 236.355469 278.757812 237.039062 278.917969 237.730469 C 279.078125 238.421875 279.203125 239.121094 279.292969 239.824219 C 279.382812 240.527344 279.4375 241.234375 279.457031 241.941406 C 279.480469 242.652344 279.464844 243.359375 279.417969 244.066406 C 279.367188 244.777344 279.285156 245.480469 279.167969 246.179688 C 279.046875 246.878906 278.898438 247.570312 278.710938 248.257812 C 278.523438 248.941406 278.304688 249.613281 278.054688 250.277344 C 277.761719 251.039062 277.429688 251.785156 277.054688 252.511719 L 270.132812 265.921875 C 269.570312 267.007812 268.921875 268.039062 268.1875 269.011719 C 267.453125 269.988281 266.644531 270.894531 265.753906 271.734375 C 264.867188 272.570312 263.914062 273.328125 262.898438 274.007812 C 261.882812 274.683594 260.816406 275.273438 259.703125 275.769531 C 258.585938 276.269531 257.4375 276.667969 256.253906 276.972656 C 255.070312 277.277344 253.871094 277.476562 252.652344 277.578125 C 251.4375 277.679688 250.21875 277.679688 249.003906 277.574219 C 247.785156 277.46875 246.585938 277.261719 245.402344 276.957031 C 206.164062 266.808594 112.648438 231.539062 105.117188 124.886719 C 105.039062 123.835938 105.042969 122.78125 105.121094 121.730469 C 105.203125 120.675781 105.355469 119.636719 105.589844 118.605469 C 105.820312 117.578125 106.125 116.570312 106.503906 115.585938 C 106.882812 114.597656 107.328125 113.648438 107.847656 112.726562 C 108.367188 111.808594 108.949219 110.929688 109.59375 110.09375 C 110.238281 109.261719 110.941406 108.476562 111.703125 107.746094 C 112.464844 107.011719 113.273438 106.339844 114.132812 105.726562 C 114.992188 105.113281 115.890625 104.5625 116.828125 104.082031 L 129.570312 97.539062 C 130.203125 97.214844 130.847656 96.921875 131.507812 96.660156 C 132.167969 96.398438 132.839844 96.171875 133.523438 95.976562 C 134.207031 95.78125 134.894531 95.621094 135.59375 95.492188 C 136.292969 95.363281 136.996094 95.273438 137.703125 95.214844 C 138.410156 95.15625 139.121094 95.132812 139.832031 95.144531 C 140.539062 95.15625 141.246094 95.199219 141.953125 95.28125 C 142.660156 95.363281 143.359375 95.476562 144.050781 95.625 C 144.746094 95.777344 145.433594 95.960938 146.109375 96.175781 C 146.785156 96.394531 147.449219 96.640625 148.097656 96.925781 C 148.75 97.207031 149.386719 97.519531 150.007812 97.863281 C 150.628906 98.207031 151.230469 98.582031 151.816406 98.984375 C 152.398438 99.390625 152.960938 99.820312 153.503906 100.28125 C 154.042969 100.738281 154.5625 101.222656 155.054688 101.734375 C 155.550781 102.242188 156.019531 102.777344 156.460938 103.332031 C 156.902344 103.886719 157.316406 104.464844 157.699219 105.058594 C 158.085938 105.65625 158.4375 106.269531 158.765625 106.898438 Z M 158.765625 106.898438 " fill-opacity="1" fill-rule="nonzero"/></svg>